<svg width="42" height="47" viewBox="0 0 42 47" fill="none" xmlns="http://www.w3.org/2000/svg">
<path d="M31.0926 36.8455H36.437C38.3966 36.8455 40 35.2422 40 33.2826V20.8123C40 18.8527 38.3966 17.2493 36.437 17.2493H31.0926" stroke="white" stroke-width="3" stroke-miterlimit="10" stroke-linecap="round" stroke-linejoin="round"/>
<path d="M21.378 12.5552H30.647V45.3075H4.81586V27.1675" stroke="white" stroke-width="3" stroke-miterlimit="10" stroke-linecap="round" stroke-linejoin="round"/>
<path d="M5.03991 19.7544C5.71063 19.5204 6.19867 18.8475 6.19929 18.0591L6.20045 16.6347C6.70915 16.9663 7.29944 17.1675 7.93685 17.168L9.58881 17.1693C10.6597 17.1701 11.6066 16.6221 12.2237 15.7872C13.1372 17.1614 14.6398 18.0658 16.3347 18.0671C19.1062 18.0693 21.3758 15.6615 21.3781 12.7164L31.1062 12.724C31.293 12.1655 31.4002 11.5659 31.4006 10.9393C31.403 7.98175 29.149 5.58281 26.3658 5.58067C25.2042 5.57978 24.1373 6.00012 23.2851 6.70095C22.45 4.97515 20.7611 3.79136 18.8085 3.78985C18.0954 3.78931 17.4184 3.9476 16.8033 4.23094C15.8058 2.87631 14.2561 2.00134 12.5109 2C9.88632 1.99795 7.69528 3.96408 7.16913 6.58658C6.85924 6.50873 6.54018 6.4576 6.20847 6.45734C3.88961 6.45547 2.00757 8.45223 2.00561 10.9163L2 18.0559C1.9992 19.0376 2.75446 19.8414 3.67833 19.8421L4.5182 19.8427C4.70009 19.8428 4.87548 19.8118 5.03991 19.7544Z" stroke="white" stroke-width="3" stroke-miterlimit="10" stroke-linecap="round" stroke-linejoin="round"/>
</svg>
